<!-- Generated by IcoMoon.io -->
<svg version="1.1" xmlns="http://www.w3.org/2000/svg" width="32" height="32" viewBox="0 0 32 32">
<title>arrow-up-right-from-square-solid</title>
<path d="M24 20c-1.104 0-2 0.896-2 2v6h-18v-18h6c1.104 0 2-0.895 2-2s-0.896-2-2-2h-6c-2.209 0-4 1.791-4 4v18c0 2.209 1.791 4 4 4h18c2.209 0 4-1.791 4-4v-6c0-1.106-0.894-2-2-2zM31.413 0.585c-0.363-0.362-0.863-0.585-1.413-0.585h-10c-1.104 0-1.944 0.895-1.944 1.944 0 1.104 0.895 1.944 1.999 1.944h5.172l-14.059 14.281c-0.781 0.781-0.781 2.047 0 2.829 0.781 0.784 2.050 0.784 2.831 0.003l14-14.175v5.175c0 1.104 0.896 1.944 1.944 1.944s2.056-0.838 2.056-1.944v-10.056c0-0.496-0.225-0.996-0.587-1.358z"></path>
</svg>
