<!-- Generated by IcoMoon.io -->
<svg version="1.1" xmlns="http://www.w3.org/2000/svg" width="32" height="32" viewBox="0 0 32 32">
<title>certificate-solid</title>
<path d="M16 3.341l2.756-2.887c0.431-0.389 0.938-0.543 1.519-0.403 0.525 0.141 0.931 0.554 1.063 1.080l0.994 3.906 3.875-1.096c0.525-0.147 1.087-0.001 1.469 0.383 0.331 0.384 0.531 0.946 0.381 1.469l-1.094 3.876 3.906 0.994c0.525 0.131 0.938 0.537 1.081 1.063 0.138 0.525-0.069 1.031-0.406 1.463l-2.887 2.812 2.887 2.756c0.337 0.431 0.544 0.938 0.406 1.519-0.144 0.525-0.556 0.931-1.081 1.063l-3.906 0.994 1.094 3.875c0.15 0.525-0.050 1.087-0.381 1.469-0.381 0.331-0.944 0.531-1.469 0.381l-3.875-1.094-0.994 3.906c-0.131 0.525-0.538 0.938-1.063 1.081-0.581 0.138-1.087-0.069-1.519-0.406l-2.756-2.887-2.813 2.887c-0.431 0.337-0.938 0.544-1.463 0.406-0.525-0.144-0.931-0.556-1.063-1.081l-0.994-3.906-3.876 1.094c-0.522 0.15-1.084-0.050-1.469-0.381-0.384-0.381-0.53-0.944-0.382-1.469l1.096-3.875-3.906-0.994c-0.526-0.131-0.94-0.538-1.080-1.063-0.141-0.581 0.013-1.087 0.403-1.519l2.887-2.756-2.887-2.813c-0.389-0.431-0.543-0.938-0.403-1.463s0.554-0.931 1.080-1.063l3.906-0.994-1.096-3.876c-0.147-0.522-0.001-1.084 0.383-1.469s0.946-0.53 1.469-0.382l3.876 1.096 0.994-3.906c0.131-0.526 0.537-0.94 1.063-1.080s1.031 0.013 1.463 0.403l2.813 2.887z"></path>
</svg>
