<!-- Generated by IcoMoon.io -->
<svg version="1.1" xmlns="http://www.w3.org/2000/svg" width="40" height="32" viewBox="0 0 40 32">
<title>code-solid</title>
<path d="M25.925 2.549l-8 28.001c-0.306 1.063-1.413 1.675-2.475 1.375-1.063-0.306-1.675-1.413-1.375-2.475l8-27.999c0.306-1.062 1.413-1.677 2.475-1.374s1.675 1.411 1.375 2.472v0zM32.413 7.588l7 7c0.781 0.781 0.781 2.044 0 2.825l-7 7c-0.781 0.781-2.044 0.781-2.825 0s-0.781-2.044 0-2.825l5.581-5.588-5.581-5.588c-0.781-0.781-0.781-2.044 0-2.825s2.044-0.781 2.825 0v0zM10.412 10.412l-5.584 5.588 5.584 5.587c0.781 0.781 0.781 2.044 0 2.825s-2.044 0.781-2.825 0l-7.002-7c-0.781-0.781-0.781-2.044 0-2.825l7.002-7c0.781-0.781 2.044-0.781 2.825 0s0.781 2.044 0 2.825v0z"></path>
</svg>
