<!-- Generated by IcoMoon.io -->
<svg version="1.1" xmlns="http://www.w3.org/2000/svg" width="28" height="32" viewBox="0 0 28 32">
<title>database-solid</title>
<path d="M28 5v3c0 2.762-6.269 5-14 5s-14-2.238-14-5v-3c0-2.761 6.269-5 14-5s14 2.239 14 5zM24.575 13.419c1.244-0.463 2.494-1.056 3.425-1.787v6.369c0 2.762-6.269 5-14 5s-14-2.238-14-5v-6.369c0.933 0.731 2.126 1.325 3.428 1.787 2.801 1 6.541 1.581 10.572 1.581s7.769-0.581 10.575-1.581v0zM3.428 23.419c2.801 1 6.541 1.581 10.572 1.581s7.769-0.581 10.575-1.581c1.244-0.462 2.494-1.056 3.425-1.788v5.369c0 2.762-6.269 5-14 5s-14-2.238-14-5v-5.369c0.933 0.731 2.126 1.325 3.428 1.788z"></path>
</svg>
