<!-- Generated by IcoMoon.io -->
<svg version="1.1" xmlns="http://www.w3.org/2000/svg" width="32" height="32" viewBox="0 0 32 32">
<title>earth-americas-solid</title>
<path d="M32 16c0 8.837-7.163 16-16 16s-16-7.163-16-16c0-8.838 7.162-16 16-16s16 7.162 16 16zM3.607 12.006l0.585 1.081c0.518 0.906 1.37 1.575 2.377 1.863l3.563 1.031c1.131 0.306 1.869 1.287 1.869 2.406v2.494c0 0.688 0.387 1.313 1 1.563 0.613 0.363 1 0.988 1 1.675v2.438c0 0.975 0.931 1.675 1.869 1.406 1.013-0.288 1.787-1.144 2.044-2.106l0.175-0.7c0.262-1.056 0.95-1.962 1.894-2.506l0.506-0.288c0.938-0.531 1.512-1.525 1.512-2.606v-0.512c0-0.8-0.319-1.563-0.881-2.125l-0.238-0.238c-0.563-0.563-1.331-0.938-2.125-0.938h-2.75c-0.637 0-1.325-0.125-1.931-0.469l-2.156-1.238c-0.269-0.15-0.475-0.4-0.569-0.694-0.2-0.6 0.069-1.25 0.631-1.537l0.375-0.181c0.412-0.206 0.887-0.244 1.275-0.094l1.506 0.481c0.506 0.169 1.069-0.025 1.369-0.469 0.294-0.444 0.262-1.025-0.075-1.431l-0.85-1.012c-0.625-0.75-0.619-1.844 0.019-2.581l0.981-1.149c0.55-0.642 0.637-1.56 0.219-2.294l-0.15-0.26c-0.269-0.011-0.431-0.016-0.65-0.016-5.806 0-10.725 3.806-12.393 9.006v0zM27.35 9.656l-1.6 0.644c-0.981 0.394-1.488 1.481-1.156 2.488l1.056 3.169c0.219 0.65 0.75 1.144 1.413 1.313l1.825 0.45c0.075-0.563 0.113-1.137 0.113-1.719 0-2.3-0.6-4.463-1.65-6.344v0z"></path>
</svg>
