<!-- Generated by IcoMoon.io -->
<svg version="1.1" xmlns="http://www.w3.org/2000/svg" width="32" height="32" viewBox="0 0 32 32">
<title>envelope-solid</title>
<path d="M16 22c-1.033 0-2.066-0.339-2.947-1.026l-13.053-10.149v14.175c0 1.656 1.343 3 3 3h26c1.657 0 3-1.343 3-3v-14.175l-13.050 10.156c-0.881 0.681-1.919 1.019-2.95 1.019zM1.018 9.081l13.262 10.319c1.012 0.788 2.429 0.788 3.441 0l13.262-10.319c0.584-0.5 1.016-1.269 1.016-2.081 0-1.657-1.344-3-3-3h-26c-1.657 0-3 1.343-3 3 0 0.813 0.376 1.581 1.018 2.081z"></path>
</svg>
