<!-- Generated by IcoMoon.io -->
<svg version="1.1" xmlns="http://www.w3.org/2000/svg" width="32" height="32" viewBox="0 0 32 32">
<title>face-smile-solid</title>
<path d="M0 16c0-8.838 7.162-16 16-16s16 7.162 16 16c0 8.837-7.163 16-16 16s-16-7.163-16-16zM10.256 20.344c-0.363-0.419-0.994-0.462-1.412-0.1s-0.463 0.994-0.1 1.413c1.387 1.6 3.813 3.344 7.2 3.344 3.5 0 5.919-1.744 7.313-3.344 0.363-0.419 0.319-1.050-0.1-1.413s-1.050-0.319-1.413 0.1c-1.125 1.294-3.031 2.656-5.8 2.656-2.656 0-4.569-1.363-5.688-2.656v0zM11.025 11c-1.106 0-2 0.894-2 2s0.894 2 2 2c1.1 0 2-0.894 2-2s-0.9-2-2-2zM21.025 15c1.1 0 2-0.894 2-2s-0.9-2-2-2c-1.106 0-2 0.894-2 2s0.894 2 2 2z"></path>
</svg>
