<!-- Generated by IcoMoon.io -->
<svg version="1.1" xmlns="http://www.w3.org/2000/svg" width="32" height="32" viewBox="0 0 32 32">
<title>face-frown-solid</title>
<path d="M0 16c0-8.838 7.162-16 16-16s16 7.162 16 16c0 8.837-7.163 16-16 16s-16-7.163-16-16zM9.956 24.294c0.762-2.456 3.162-4.294 6.044-4.294s5.281 1.837 6.044 4.294c0.163 0.531 0.725 0.825 1.25 0.663 0.531-0.163 0.825-0.725 0.663-1.25-1.031-3.325-4.219-5.762-7.956-5.762-3.731 0-6.925 2.438-7.956 5.762-0.162 0.525 0.131 1.087 0.662 1.25 0.525 0.163 1.088-0.131 1.25-0.663v0zM11.025 11c-1.106 0-2 0.894-2 2s0.894 2 2 2c1.1 0 2-0.894 2-2s-0.9-2-2-2zM21.025 15c1.1 0 2-0.894 2-2s-0.9-2-2-2c-1.106 0-2 0.894-2 2s0.894 2 2 2z"></path>
</svg>
