<!-- Generated by IcoMoon.io -->
<svg version="1.1" xmlns="http://www.w3.org/2000/svg" width="32" height="32" viewBox="0 0 32 32">
<title>globe-solid-1</title>
<path d="M22 16c0 1.387-0.075 2.725-0.206 4h-11.588c-0.131-1.275-0.262-2.613-0.262-4s0.131-2.725 0.262-4h11.588c0.131 1.275 0.206 2.613 0.206 4zM31.494 12c0.331 1.281 0.506 2.619 0.506 4s-0.175 2.719-0.506 4h-7.694c0.131-1.288 0.2-2.681 0.2-4 0-1.375-0.069-2.713-0.2-4h7.694zM30.837 10h-7.294c-0.625-3.991-1.863-7.336-3.456-9.472 4.9 1.29 8.875 4.844 10.75 9.472zM21.519 10h-11.037c0.381-2.275 0.969-4.289 1.688-5.916 0.656-1.476 1.387-2.546 2.094-3.221 0.7-0.664 1.281-0.863 1.737-0.863s1.038 0.199 1.738 0.863c0.706 0.675 1.438 1.746 2.094 3.221 0.719 1.627 1.306 3.641 1.688 5.916v0zM1.163 10c1.874-4.629 5.849-8.182 10.749-9.472-1.594 2.136-2.831 5.481-3.456 9.472h-7.293zM8.2 12c-0.131 1.287-0.256 2.625-0.256 4 0 1.319 0.125 2.712 0.256 4h-7.696c-0.329-1.281-0.504-2.619-0.504-4s0.175-2.719 0.504-4h7.696zM12.169 27.913c-0.719-1.625-1.306-3.637-1.688-5.913h11.037c-0.381 2.275-0.969 4.288-1.688 5.913-0.656 1.481-1.387 2.55-2.094 3.225-0.7 0.663-1.281 0.862-1.794 0.862-0.4 0-0.981-0.2-1.681-0.863-0.706-0.675-1.438-1.744-2.094-3.225v0zM11.912 31.475c-4.9-1.294-8.876-4.844-10.749-9.475h7.293c0.625 3.994 1.863 7.337 3.456 9.475v0zM20.087 31.475c1.594-2.137 2.831-5.481 3.456-9.475h7.294c-1.875 4.631-5.85 8.181-10.75 9.475v0z"></path>
</svg>
