<!-- Generated by IcoMoon.io -->
<svg version="1.1" xmlns="http://www.w3.org/2000/svg" width="32" height="32" viewBox="0 0 32 32">
<title>medal-solid</title>
<path d="M13.981 8.175l-4.662-7.689c-0.125-0.301-0.45-0.486-0.8-0.486h-7.517c-0.809 0-1.283 0.911-0.819 1.574l6.956 9.931c1.854-1.73 4.217-2.924 6.842-3.33zM16 10c-6.078 0-11 4.922-11 11s4.925 11 11 11 11-4.922 11-11-4.919-11-11-11zM21.781 19.831l-2.367 2.313 0.555 3.266c0.102 0.578-0.516 1.031-1.039 0.75l-2.93-1.539-2.93 1.536c-0.523 0.281-1.141-0.172-1.039-0.75l0.555-3.266-2.367-2.313c-0.429-0.416-0.185-1.141 0.402-1.228l3.274-0.477 1.464-2.967c0.125-0.266 0.383-0.398 0.641-0.398s0.516 0.136 0.641 0.398l1.469 2.969 3.274 0.477c0.595 0.086 0.832 0.811 0.401 1.23zM30.944 0h-7.462c-0.351 0-0.677 0.184-0.858 0.486l-4.61 7.631c2.625 0.406 4.992 1.601 6.844 3.336l6.956-9.931c0.467-0.611-0.008-1.522-0.87-1.522z"></path>
</svg>
