<!-- Generated by IcoMoon.io -->
<svg version="1.1" xmlns="http://www.w3.org/2000/svg" width="32" height="32" viewBox="0 0 32 32">
<title>paper-plane-solid</title>
<path d="M31.975 2.304l-4 25.944c-0.094 0.608-0.461 1.139-0.998 1.441-0.303 0.17-0.642 0.256-0.98 0.256-0.262 0-0.52-0.051-0.768-0.154l-7.663-3.194-3.179 4.768c-0.244 0.417-0.65 0.636-1.088 0.636-0.719 0-1.3-0.581-1.3-1.3v-6.011c0-0.445 0.148-0.877 0.421-1.227l13.579-17.461-18.356 16.519-6.413-2.675c-0.703-0.294-1.18-0.956-1.227-1.775s0.342-1.483 1.004-1.861l28-15.944c0.668-0.382 1.492-0.347 2.125 0.088s0.961 1.193 0.842 1.952z"></path>
</svg>
