<!-- Generated by IcoMoon.io -->
<svg version="1.1" xmlns="http://www.w3.org/2000/svg" width="28" height="32" viewBox="0 0 28 32">
<title>share-nodes-solid-1</title>
<path d="M28 7.944c0 3.369-2.688 6-6 6-1.619 0-3.087-0.581-4.163-1.625l-5.881 2.938c0.031 0.244-0.012 0.438-0.012 0.744 0 0.25 0.044 0.444 0.012 0.744l5.881 2.938c1.075-1.044 2.544-1.681 4.163-1.681 3.313 0 6 2.631 6 6 0 3.313-2.688 6-6 6-3.369 0-6-2.688-6-6 0-0.306 0.012-0.5 0.044-0.744l-5.881-2.938c-1.075 1.044-2.544 1.681-4.162 1.681-3.314 0-6-2.688-6-6 0-3.369 2.686-6 6-6 1.619 0 3.088 0.637 4.162 1.681l5.881-2.938c-0.031-0.3-0.044-0.494-0.044-0.744 0-3.314 2.631-6 6-6 3.313 0 6 2.686 6 6v-0.056zM5.944 17.944c1.162 0 2-0.837 2-2 0-1.050-0.838-2-2-2-1.048 0-2 0.95-2 2 0 1.163 0.952 2 2 2zM22 5.944c-1.106 0-2 0.95-2 2 0 1.162 0.894 2 2 2s2-0.838 2-2c0-1.050-0.894-2-2-2zM22 26c1.106 0 2-0.894 2-2s-0.894-2-2-2c-1.106 0-2 0.894-2 2s0.894 2 2 2z"></path>
</svg>
