<svg aria-hidden="true" style="position: absolute; width: 0; height: 0; overflow: hidden;" version="1.1" xmlns="http://www.w3.org/2000/svg" xmlns:xlink="http://www.w3.org/1999/xlink">
<defs>
<symbol id="icon-plus-solid" viewBox="0 0 28 32">
<path d="M27 16c0 1.106-0.896 2.001-2 2.001h-9v9c0 1.106-0.896 1.999-2 1.999s-2-0.894-2-1.999v-9h-9c-1.104 0-2-0.895-2-2.001s0.896-1.999 2-1.999h9v-9c0-1.106 0.896-2.001 2-2.001s2 0.895 2 2.001v9h9c1.106-0.001 2 0.893 2 1.999z"></path>
</symbol>
<symbol id="icon-bars-solid" viewBox="0 0 28 32">
<path d="M0 6c0-1.104 0.896-2 2-2h24c1.106 0 2 0.896 2 2 0 1.106-0.894 2-2 2h-24c-1.104 0-2-0.894-2-2zM0 16c0-1.106 0.896-2 2-2h24c1.106 0 2 0.894 2 2s-0.894 2-2 2h-24c-1.104 0-2-0.894-2-2zM26 28h-24c-1.104 0-2-0.894-2-2s0.896-2 2-2h24c1.106 0 2 0.894 2 2s-0.894 2-2 2z"></path>
</symbol>
<symbol id="icon-reply-solid" viewBox="0 0 32 32">
<path d="M0.519 11.869l11-9.444c0.963-0.831 2.481-0.157 2.481 1.135v5.003c10.038 0.056 18 2.068 18 11.581 0 3.84-2.474 7.644-5.209 9.631-0.854 0.621-2.068-0.158-1.754-1.164 2.834-9.063-1.344-11.469-11.037-11.613v5.495c0 1.294-1.519 1.966-2.481 1.135l-11-9.444c-0.691-0.647-0.693-1.723 0-2.316z"></path>
</symbol>
<symbol id="icon-share-solid-1" viewBox="0 0 32 32">
<path d="M31.481 14.137l-11 9.444c-0.961 0.831-2.481 0.159-2.481-1.135v-5.44c-9.694 0.137-13.872 2.544-11.038 11.606 0.314 1.006-0.901 1.785-1.754 1.164-2.734-1.989-5.209-5.789-5.209-9.633 0-9.512 7.963-11.525 18-11.644v-4.999c0-1.292 1.517-1.966 2.481-1.135l11 9.444c0.694 0.652 0.694 1.727 0.001 2.328z"></path>
</symbol>
<symbol id="icon-paper-plane-solid" viewBox="0 0 32 32">
<path d="M31.975 2.304l-4 25.944c-0.094 0.608-0.461 1.139-0.998 1.441-0.303 0.17-0.642 0.256-0.98 0.256-0.262 0-0.52-0.051-0.768-0.154l-7.663-3.194-3.179 4.768c-0.244 0.417-0.65 0.636-1.088 0.636-0.719 0-1.3-0.581-1.3-1.3v-6.011c0-0.445 0.148-0.877 0.421-1.227l13.579-17.461-18.356 16.519-6.413-2.675c-0.703-0.294-1.18-0.956-1.227-1.775s0.342-1.483 1.004-1.861l28-15.944c0.668-0.382 1.492-0.347 2.125 0.088s0.961 1.193 0.842 1.952z"></path>
</symbol>
<symbol id="icon-envelope-solid" viewBox="0 0 32 32">
<path d="M16 22c-1.033 0-2.066-0.339-2.947-1.026l-13.053-10.149v14.175c0 1.656 1.343 3 3 3h26c1.657 0 3-1.343 3-3v-14.175l-13.050 10.156c-0.881 0.681-1.919 1.019-2.95 1.019zM1.018 9.081l13.262 10.319c1.012 0.788 2.429 0.788 3.441 0l13.262-10.319c0.584-0.5 1.016-1.269 1.016-2.081 0-1.657-1.344-3-3-3h-26c-1.657 0-3 1.343-3 3 0 0.813 0.376 1.581 1.018 2.081z"></path>
</symbol>
<symbol id="icon-user-plus-solid" viewBox="0 0 40 32">
<path d="M14 16c4.419 0 8-3.582 8-8s-3.581-8-8-8c-4.419 0-8 3.582-8 8s3.581 8 8 8zM17.169 19h-6.338c-5.981 0-10.831 4.85-10.831 10.831 0 1.2 0.97 2.169 2.166 2.169h23.669c1.196 0 2.165-0.969 2.165-2.169 0-5.981-4.85-10.831-10.831-10.831zM38.5 12.5h-3v-3c0-0.825-0.669-1.5-1.5-1.5s-1.5 0.672-1.5 1.5v3h-3c-0.825 0-1.5 0.675-1.5 1.5s0.672 1.5 1.5 1.5h3v3c0 0.831 0.675 1.5 1.5 1.5s1.5-0.672 1.5-1.5v-3h3c0.831 0 1.5-0.669 1.5-1.5s-0.669-1.5-1.5-1.5z"></path>
</symbol>
<symbol id="icon-face-frown-solid" viewBox="0 0 32 32">
<path d="M0 16c0-8.838 7.162-16 16-16s16 7.162 16 16c0 8.837-7.163 16-16 16s-16-7.163-16-16zM9.956 24.294c0.762-2.456 3.162-4.294 6.044-4.294s5.281 1.837 6.044 4.294c0.163 0.531 0.725 0.825 1.25 0.663 0.531-0.163 0.825-0.725 0.663-1.25-1.031-3.325-4.219-5.762-7.956-5.762-3.731 0-6.925 2.438-7.956 5.762-0.162 0.525 0.131 1.087 0.662 1.25 0.525 0.163 1.088-0.131 1.25-0.663v0zM11.025 11c-1.106 0-2 0.894-2 2s0.894 2 2 2c1.1 0 2-0.894 2-2s-0.9-2-2-2zM21.025 15c1.1 0 2-0.894 2-2s-0.9-2-2-2c-1.106 0-2 0.894-2 2s0.894 2 2 2z"></path>
</symbol>
<symbol id="icon-face-smile-solid" viewBox="0 0 32 32">
<path d="M0 16c0-8.838 7.162-16 16-16s16 7.162 16 16c0 8.837-7.163 16-16 16s-16-7.163-16-16zM10.256 20.344c-0.363-0.419-0.994-0.462-1.412-0.1s-0.463 0.994-0.1 1.413c1.387 1.6 3.813 3.344 7.2 3.344 3.5 0 5.919-1.744 7.313-3.344 0.363-0.419 0.319-1.050-0.1-1.413s-1.050-0.319-1.413 0.1c-1.125 1.294-3.031 2.656-5.8 2.656-2.656 0-4.569-1.363-5.688-2.656v0zM11.025 11c-1.106 0-2 0.894-2 2s0.894 2 2 2c1.1 0 2-0.894 2-2s-0.9-2-2-2zM21.025 15c1.1 0 2-0.894 2-2s-0.9-2-2-2c-1.106 0-2 0.894-2 2s0.894 2 2 2z"></path>
</symbol>
<symbol id="icon-user-solid" viewBox="0 0 28 32">
<path d="M14 16c4.419 0 8-3.582 8-8s-3.581-8-8-8c-4.419 0-8 3.582-8 8s3.581 8 8 8zM17.169 19h-6.338c-5.981 0-10.831 4.85-10.831 10.831 0 1.196 0.97 2.167 2.166 2.167h23.669c1.196 0.002 2.165-0.967 2.165-2.167 0-5.981-4.85-10.831-10.831-10.831z"></path>
</symbol>
<symbol id="icon-map-pin-solid" viewBox="0 0 20 32">
<path d="M20 9c0 4.969-4.031 9-9 9-4.971 0-9-4.031-9-9 0-4.971 4.029-9 9-9 4.969 0 9 4.029 9 9zM12 4c0-0.553-0.45-1-1-1-3.369 0-6 2.686-6 6 0 0.55 0.447 1 1 1 0.55 0 1-0.45 1-1 0-2.206 1.794-4 4-4 0.55 0 1-0.447 1-1zM9 30v-10.181c0.65 0.119 1.319 0.125 2 0.125s1.35-0.006 2-0.125v10.181c0 1.106-0.894 2-2 2s-2-0.894-2-2z"></path>
</symbol>
<symbol id="icon-globe-solid-1" viewBox="0 0 32 32">
<path d="M22 16c0 1.387-0.075 2.725-0.206 4h-11.588c-0.131-1.275-0.262-2.613-0.262-4s0.131-2.725 0.262-4h11.588c0.131 1.275 0.206 2.613 0.206 4zM31.494 12c0.331 1.281 0.506 2.619 0.506 4s-0.175 2.719-0.506 4h-7.694c0.131-1.288 0.2-2.681 0.2-4 0-1.375-0.069-2.713-0.2-4h7.694zM30.837 10h-7.294c-0.625-3.991-1.863-7.336-3.456-9.472 4.9 1.29 8.875 4.844 10.75 9.472zM21.519 10h-11.037c0.381-2.275 0.969-4.289 1.688-5.916 0.656-1.476 1.387-2.546 2.094-3.221 0.7-0.664 1.281-0.863 1.737-0.863s1.038 0.199 1.738 0.863c0.706 0.675 1.438 1.746 2.094 3.221 0.719 1.627 1.306 3.641 1.688 5.916v0zM1.163 10c1.874-4.629 5.849-8.182 10.749-9.472-1.594 2.136-2.831 5.481-3.456 9.472h-7.293zM8.2 12c-0.131 1.287-0.256 2.625-0.256 4 0 1.319 0.125 2.712 0.256 4h-7.696c-0.329-1.281-0.504-2.619-0.504-4s0.175-2.719 0.504-4h7.696zM12.169 27.913c-0.719-1.625-1.306-3.637-1.688-5.913h11.037c-0.381 2.275-0.969 4.288-1.688 5.913-0.656 1.481-1.387 2.55-2.094 3.225-0.7 0.663-1.281 0.862-1.794 0.862-0.4 0-0.981-0.2-1.681-0.863-0.706-0.675-1.438-1.744-2.094-3.225v0zM11.912 31.475c-4.9-1.294-8.876-4.844-10.749-9.475h7.293c0.625 3.994 1.863 7.337 3.456 9.475v0zM20.087 31.475c1.594-2.137 2.831-5.481 3.456-9.475h7.294c-1.875 4.631-5.85 8.181-10.75 9.475v0z"></path>
</symbol>
<symbol id="icon-globe-solid" viewBox="0 0 32 32">
<path d="M22 16c0 1.387-0.075 2.725-0.206 4h-11.588c-0.131-1.275-0.262-2.613-0.262-4s0.131-2.725 0.262-4h11.588c0.131 1.275 0.206 2.613 0.206 4zM31.494 12c0.331 1.281 0.506 2.619 0.506 4s-0.175 2.719-0.506 4h-7.694c0.131-1.288 0.2-2.681 0.2-4 0-1.375-0.069-2.713-0.2-4h7.694zM30.837 10h-7.294c-0.625-3.991-1.863-7.336-3.456-9.472 4.9 1.29 8.875 4.844 10.75 9.472zM21.519 10h-11.037c0.381-2.275 0.969-4.289 1.688-5.916 0.656-1.476 1.387-2.546 2.094-3.221 0.7-0.664 1.281-0.863 1.737-0.863s1.038 0.199 1.738 0.863c0.706 0.675 1.438 1.746 2.094 3.221 0.719 1.627 1.306 3.641 1.688 5.916v0zM1.163 10c1.874-4.629 5.849-8.182 10.749-9.472-1.594 2.136-2.831 5.481-3.456 9.472h-7.293zM8.2 12c-0.131 1.287-0.256 2.625-0.256 4 0 1.319 0.125 2.712 0.256 4h-7.696c-0.329-1.281-0.504-2.619-0.504-4s0.175-2.719 0.504-4h7.696zM12.169 27.913c-0.719-1.625-1.306-3.637-1.688-5.913h11.037c-0.381 2.275-0.969 4.288-1.688 5.913-0.656 1.481-1.387 2.55-2.094 3.225-0.7 0.663-1.281 0.862-1.794 0.862-0.4 0-0.981-0.2-1.681-0.863-0.706-0.675-1.438-1.744-2.094-3.225v0zM11.912 31.475c-4.9-1.294-8.876-4.844-10.749-9.475h7.293c0.625 3.994 1.863 7.337 3.456 9.475v0zM20.087 31.475c1.594-2.137 2.831-5.481 3.456-9.475h7.294c-1.875 4.631-5.85 8.181-10.75 9.475v0z"></path>
</symbol>
<symbol id="icon-earth-americas-solid" viewBox="0 0 32 32">
<path d="M32 16c0 8.837-7.163 16-16 16s-16-7.163-16-16c0-8.838 7.162-16 16-16s16 7.162 16 16zM3.607 12.006l0.585 1.081c0.518 0.906 1.37 1.575 2.377 1.863l3.563 1.031c1.131 0.306 1.869 1.287 1.869 2.406v2.494c0 0.688 0.387 1.313 1 1.563 0.613 0.363 1 0.988 1 1.675v2.438c0 0.975 0.931 1.675 1.869 1.406 1.013-0.288 1.787-1.144 2.044-2.106l0.175-0.7c0.262-1.056 0.95-1.962 1.894-2.506l0.506-0.288c0.938-0.531 1.512-1.525 1.512-2.606v-0.512c0-0.8-0.319-1.563-0.881-2.125l-0.238-0.238c-0.563-0.563-1.331-0.938-2.125-0.938h-2.75c-0.637 0-1.325-0.125-1.931-0.469l-2.156-1.238c-0.269-0.15-0.475-0.4-0.569-0.694-0.2-0.6 0.069-1.25 0.631-1.537l0.375-0.181c0.412-0.206 0.887-0.244 1.275-0.094l1.506 0.481c0.506 0.169 1.069-0.025 1.369-0.469 0.294-0.444 0.262-1.025-0.075-1.431l-0.85-1.012c-0.625-0.75-0.619-1.844 0.019-2.581l0.981-1.149c0.55-0.642 0.637-1.56 0.219-2.294l-0.15-0.26c-0.269-0.011-0.431-0.016-0.65-0.016-5.806 0-10.725 3.806-12.393 9.006v0zM27.35 9.656l-1.6 0.644c-0.981 0.394-1.488 1.481-1.156 2.488l1.056 3.169c0.219 0.65 0.75 1.144 1.413 1.313l1.825 0.45c0.075-0.563 0.113-1.137 0.113-1.719 0-2.3-0.6-4.463-1.65-6.344v0z"></path>
</symbol>
<symbol id="icon-location-dot-solid" viewBox="0 0 24 32">
<path d="M10.519 31.2c-3.263-4.012-10.519-13.738-10.519-19.2 0-6.628 5.372-12 12-12 6.625 0 12 5.372 12 12 0 5.462-7.313 15.188-10.519 19.2-0.769 0.956-2.194 0.956-2.963 0v0zM12 16c2.206 0 4-1.794 4-4s-1.794-4-4-4c-2.206 0-4 1.794-4 4s1.794 4 4 4z"></path>
</symbol>
<symbol id="icon-figma-brands-1" viewBox="0 0 24 32">
<path d="M0.875 5.987c0-3.307 2.68-5.987 5.987-5.987h10.273c3.307 0 5.987 2.68 5.987 5.987 0 2.094-1.075 3.936-2.703 5.007 1.628 1.070 2.703 2.913 2.703 5.007 0 3.307-2.68 5.987-5.987 5.987h-0.13c-1.55 0-2.963-0.589-4.026-1.556v5.516c0 3.351-2.751 6.052-6.085 6.052-3.298 0-6.019-2.672-6.019-5.987 0-2.094 1.075-3.936 2.702-5.006-1.628-1.070-2.702-2.913-2.702-5.006s1.075-3.936 2.703-5.007c-1.628-1.070-2.703-2.913-2.703-5.007zM11.018 11.974h-4.156c-2.223 0-4.026 1.803-4.026 4.026 0 2.215 1.789 4.012 4 4.026 0.009-0 0.017-0 0.026-0h4.156v-8.052zM12.979 16c0 2.223 1.802 4.026 4.026 4.026h0.13c2.224 0 4.026-1.802 4.026-4.026s-1.802-4.026-4.026-4.026h-0.13c-2.223 0-4.026 1.803-4.026 4.026zM6.862 21.987c-0.009 0-0.017-0-0.026-0-2.212 0.014-4 1.811-4 4.026s1.827 4.026 4.058 4.026c2.268 0 4.124-1.84 4.124-4.091v-3.961h-4.156zM6.862 1.961c-2.223 0-4.026 1.802-4.026 4.026s1.802 4.026 4.026 4.026h4.156v-8.052h-4.156zM12.979 10.013h4.156c2.224 0 4.026-1.802 4.026-4.026s-1.802-4.026-4.026-4.026h-4.156v8.052z"></path>
</symbol>
<symbol id="icon-figma-brands" viewBox="0 0 24 32">
<path d="M0.875 5.987c0-3.307 2.68-5.987 5.987-5.987h10.273c3.307 0 5.987 2.68 5.987 5.987 0 2.094-1.075 3.936-2.703 5.007 1.628 1.070 2.703 2.913 2.703 5.007 0 3.307-2.68 5.987-5.987 5.987h-0.13c-1.55 0-2.963-0.589-4.026-1.556v5.516c0 3.351-2.751 6.052-6.085 6.052-3.298 0-6.019-2.672-6.019-5.987 0-2.094 1.075-3.936 2.702-5.006-1.628-1.070-2.702-2.913-2.702-5.006s1.075-3.936 2.703-5.007c-1.628-1.070-2.703-2.913-2.703-5.007zM11.018 11.974h-4.156c-2.223 0-4.026 1.803-4.026 4.026 0 2.215 1.789 4.012 4 4.026 0.009-0 0.017-0 0.026-0h4.156v-8.052zM12.979 16c0 2.223 1.802 4.026 4.026 4.026h0.13c2.224 0 4.026-1.802 4.026-4.026s-1.802-4.026-4.026-4.026h-0.13c-2.223 0-4.026 1.803-4.026 4.026zM6.862 21.987c-0.009 0-0.017-0-0.026-0-2.212 0.014-4 1.811-4 4.026s1.827 4.026 4.058 4.026c2.268 0 4.124-1.84 4.124-4.091v-3.961h-4.156zM6.862 1.961c-2.223 0-4.026 1.802-4.026 4.026s1.802 4.026 4.026 4.026h4.156v-8.052h-4.156zM12.979 10.013h4.156c2.224 0 4.026-1.802 4.026-4.026s-1.802-4.026-4.026-4.026h-4.156v8.052z"></path>
</symbol>
<symbol id="icon-linkedin-brands" viewBox="0 0 28 32">
<path d="M26 2h-24.006c-1.1 0-1.994 0.906-1.994 2.019v23.962c0 1.113 0.894 2.019 1.994 2.019h24.006c1.1 0 2-0.906 2-2.019v-23.962c0-1.112-0.9-2.019-2-2.019zM8.463 26h-4.15v-13.363h4.156v13.363zM6.388 10.813c-1.331 0-2.406-1.081-2.406-2.406s1.075-2.406 2.406-2.406c1.325 0 2.406 1.081 2.406 2.406 0 1.331-1.075 2.406-2.406 2.406zM24.019 26h-4.15v-6.5c0-1.55-0.031-3.544-2.156-3.544-2.162 0-2.494 1.688-2.494 3.431v6.613h-4.15v-13.363h3.981v1.825h0.056c0.556-1.050 1.912-2.156 3.931-2.156 4.2 0 4.981 2.769 4.981 6.369v7.325z"></path>
</symbol>
<symbol id="icon-facebook-square-brands" viewBox="0 0 28 32">
<path d="M25 2h-22c-1.657 0-3 1.343-3 3v0 22c0 1.657 1.343 3 3 3v0h8.578v-9.519h-3.938v-4.481h3.938v-3.415c0-3.884 2.313-6.030 5.854-6.030 1.696 0 3.47 0.303 3.47 0.303v3.813h-1.954c-1.926 0-2.526 1.195-2.526 2.421v2.909h4.299l-0.688 4.481h-3.611v9.519h8.578c1.657 0 3-1.343 3-3v0-22c0-1.657-1.343-3-3-3v0z"></path>
</symbol>
<symbol id="icon-github-square-brands" viewBox="0 0 28 32">
<path d="M25 2h-22c-1.656 0-3 1.344-3 3v22c0 1.656 1.344 3 3 3h22c1.656 0 3-1.344 3-3v-22c0-1.656-1.344-3-3-3zM17.331 25.981c-0.525 0.094-0.719-0.231-0.719-0.5 0-0.337 0.012-2.063 0.012-3.456 0-0.975-0.325-1.594-0.706-1.919 2.313-0.256 4.75-0.575 4.75-4.569 0-1.137-0.406-1.706-1.069-2.438 0.106-0.269 0.462-1.375-0.106-2.813-0.869-0.269-2.856 1.119-2.856 1.119-0.825-0.231-1.719-0.35-2.6-0.35s-1.775 0.119-2.6 0.35c0 0-1.988-1.387-2.856-1.119-0.569 1.431-0.219 2.537-0.106 2.813-0.662 0.731-0.975 1.3-0.975 2.438 0 3.975 2.331 4.313 4.644 4.569-0.3 0.269-0.569 0.731-0.662 1.394-0.594 0.269-2.112 0.731-3.019-0.869-0.569-0.988-1.594-1.069-1.594-1.069-1.013-0.012-0.069 0.637-0.069 0.637 0.675 0.313 1.15 1.512 1.15 1.512 0.606 1.856 3.506 1.231 3.506 1.231 0 0.869 0.012 2.281 0.012 2.538 0 0.269-0.188 0.594-0.719 0.5-4.125-1.381-7.013-5.306-7.013-9.894 0-5.738 4.388-10.094 10.125-10.094s10.387 4.356 10.387 10.094c0.006 4.587-2.794 8.519-6.919 9.894zM11.2 22.163c-0.119 0.025-0.231-0.025-0.244-0.106-0.012-0.094 0.069-0.175 0.188-0.2 0.119-0.012 0.231 0.038 0.244 0.119 0.019 0.081-0.063 0.163-0.188 0.188zM10.606 22.106c0 0.081-0.094 0.15-0.219 0.15-0.137 0.012-0.231-0.056-0.231-0.15 0-0.081 0.094-0.15 0.219-0.15 0.119-0.012 0.231 0.056 0.231 0.15zM9.75 22.038c-0.025 0.081-0.15 0.119-0.256 0.081-0.119-0.025-0.2-0.119-0.175-0.2s0.15-0.119 0.256-0.094c0.125 0.038 0.206 0.131 0.175 0.212zM8.981 21.7c-0.056 0.069-0.175 0.056-0.269-0.038-0.094-0.081-0.119-0.2-0.056-0.256 0.056-0.069 0.175-0.056 0.269 0.038 0.081 0.081 0.113 0.206 0.056 0.256zM8.412 21.131c-0.056 0.038-0.162 0-0.231-0.094s-0.069-0.2 0-0.244c0.069-0.056 0.175-0.012 0.231 0.081 0.069 0.094 0.069 0.206 0 0.256zM8.006 20.525c-0.056 0.056-0.15 0.025-0.219-0.038-0.069-0.081-0.081-0.175-0.025-0.219 0.056-0.056 0.15-0.025 0.219 0.038 0.069 0.081 0.081 0.175 0.025 0.219zM7.588 20.063c-0.025 0.056-0.106 0.069-0.175 0.025-0.081-0.038-0.119-0.106-0.094-0.163 0.025-0.038 0.094-0.056 0.175-0.025 0.081 0.044 0.119 0.113 0.094 0.163z"></path>
</symbol>
<symbol id="icon-shopify-brands" viewBox="0 0 28 32">
<path d="M24.27 6.506c-0.020-0.138-0.134-0.243-0.274-0.25l-0.001-0c-0.125 0-2.327-0.050-2.327-0.050s-1.351-1.301-1.851-1.802v27.046l7.856-1.95s-3.378-22.844-3.402-22.994zM18.041 4.404c-0.137-0.429-0.29-0.793-0.47-1.141l0.019 0.041c-0.652-1.251-1.626-1.929-2.777-1.929-0.010-0-0.021-0.001-0.033-0.001-0.077 0-0.152 0.009-0.224 0.027l0.006-0.001c-0.025-0.050-0.075-0.075-0.1-0.125-0.5-0.548-1.15-0.798-1.926-0.775-1.5 0.050-3 1.125-4.203 3.052-0.851 1.351-1.5 3.053-1.676 4.379-1.726 0.525-2.927 0.901-2.952 0.926-0.875 0.275-0.901 0.3-1 1.125-0.075 0.625-2.375 18.239-2.375 18.239l18.911 3.28v-27.396c-0.101 0.004-0.196 0.013-0.289 0.027l0.014-0.002s-0.35 0.1-0.926 0.275zM14.588 5.481c-1 0.3-2.102 0.65-3.178 0.976 0.3-1.176 0.901-2.352 1.601-3.125 0.275-0.275 0.651-0.601 1.076-0.801 0.426 0.898 0.526 2.124 0.501 2.95zM12.536 1.528c0.016-0.001 0.035-0.001 0.054-0.001 0.311 0 0.604 0.083 0.855 0.228l-0.008-0.004c-0.4 0.2-0.801 0.526-1.176 0.901-0.951 1.026-1.676 2.625-1.976 4.153-0.901 0.276-1.802 0.551-2.625 0.801 0.547-2.399 2.574-6.027 4.876-6.077zM9.634 15.288c0.1 1.601 4.328 1.951 4.578 5.729 0.175 2.977-1.576 5.004-4.103 5.154-3.052 0.2-4.728-1.601-4.728-1.601l0.65-2.75s1.676 1.276 3.027 1.176c0.875-0.050 1.201-0.776 1.176-1.276-0.125-2.101-3.578-1.976-3.803-5.429-0.2-2.902 1.701-5.829 5.904-6.105 1.625-0.1 2.452 0.301 2.452 0.301l-0.951 3.6s-1.076-0.5-2.352-0.4c-1.851 0.126-1.876 1.301-1.851 1.601zM15.589 5.18c0-0.75-0.1-1.826-0.451-2.727 1.151 0.225 1.701 1.5 1.952 2.277q-0.676 0.188-1.501 0.45z"></path>
</symbol>
<symbol id="icon-code-solid" viewBox="0 0 40 32">
<path d="M25.925 2.549l-8 28.001c-0.306 1.063-1.413 1.675-2.475 1.375-1.063-0.306-1.675-1.413-1.375-2.475l8-27.999c0.306-1.062 1.413-1.677 2.475-1.374s1.675 1.411 1.375 2.472v0zM32.413 7.588l7 7c0.781 0.781 0.781 2.044 0 2.825l-7 7c-0.781 0.781-2.044 0.781-2.825 0s-0.781-2.044 0-2.825l5.581-5.588-5.581-5.588c-0.781-0.781-0.781-2.044 0-2.825s2.044-0.781 2.825 0v0zM10.412 10.412l-5.584 5.588 5.584 5.587c0.781 0.781 0.781 2.044 0 2.825s-2.044 0.781-2.825 0l-7.002-7c-0.781-0.781-0.781-2.044 0-2.825l7.002-7c0.781-0.781 2.044-0.781 2.825 0s0.781 2.044 0 2.825v0z"></path>
</symbol>
<symbol id="icon-html5-brands" viewBox="0 0 24 32">
<path d="M0 2l2.181 24.738 9.787 3.262 9.85-3.262 2.181-24.738h-24zM19.262 9.994h-11.488l0.256 3.088h10.975l-0.85 9.275-6.119 1.688v0.019h-0.069l-6.169-1.706-0.375-4.738h2.981l0.219 2.381 3.344 0.906 3.356-0.906 0.375-3.887h-10.431l-0.8-9.1h15.069l-0.275 2.981z"></path>
</symbol>
<symbol id="icon-css3-alt-brands" viewBox="0 0 24 32">
<path d="M0 2l2.181 24.738 9.819 3.262 9.819-3.262 2.181-24.738h-24zM19.569 7l-0.3 2.956-7.225 3.088h6.969l-0.8 9.162-6.137 1.794-6.175-1.825-0.4-4.619h3.056l0.2 2.394 3.287 0.831 3.419-0.962 0.231-3.85-10.406-0.031-0.225-2.894 7.412-3.088h-7.681l-0.362-2.956h15.137z"></path>
</symbol>
<symbol id="icon-js-brands" viewBox="0 0 28 32">
<path d="M0 2v28h28v-28h-28zM15.238 23.837c0 2.725-1.6 3.969-3.931 3.969-2.106 0-3.325-1.087-3.95-2.406l2.144-1.294c0.412 0.731 0.787 1.35 1.694 1.35 0.863 0 1.412-0.337 1.412-1.656v-8.944h2.631v8.981zM21.462 27.806c-2.444 0-4.025-1.163-4.794-2.688l2.144-1.238c0.563 0.919 1.3 1.6 2.594 1.6 1.087 0 1.788-0.544 1.788-1.3 0-0.9-0.712-1.219-1.919-1.75l-0.656-0.281c-1.9-0.806-3.156-1.825-3.156-3.969 0-1.975 1.506-3.475 3.85-3.475 1.675 0 2.875 0.581 3.738 2.106l-2.050 1.313c-0.45-0.806-0.938-1.125-1.694-1.125-0.769 0-1.256 0.488-1.256 1.125 0 0.788 0.488 1.106 1.619 1.6l0.656 0.281c2.238 0.956 3.494 1.938 3.494 4.137 0 2.363-1.863 3.663-4.356 3.663z"></path>
</symbol>
<symbol id="icon-trophy-solid" viewBox="0 0 36 32">
<path d="M35.756 5.149c-0.163-0.674-0.769-1.149-1.462-1.149h-6.3c0.015-0.778 0.007-1.481-0.010-2.064-0.028-1.084-0.909-1.936-1.997-1.936h-15.975c-1.088 0-1.969 0.852-2 1.936-0.069 0.583-0.025 1.286-0.006 2.064h-6.303c-0.694 0-1.295 0.474-1.459 1.149-0.051 0.213-1.226 5.301 2.072 10.22 2.34 3.489 6.287 5.939 11.719 7.338 1.169 0.3 1.963 1.379 1.963 2.586 0.001 1.489-1.217 2.708-2.711 2.708h-0.287c-1.657 0-2.999 1.343-2.999 3 0 0.552 0.448 1 0.944 1h13.944c0.552 0 0.944-0.448 0.944-1 0-1.657-1.343-3-2.999-3h-0.29c-1.491 0-2.71-1.219-2.71-2.709 0-1.207 0.794-2.286 1.963-2.586 5.435-1.396 9.381-3.847 11.719-7.338 3.467-4.918 2.292-10.006 2.242-10.219zM4.838 13.738c-1.746-2.575-1.9-5.256-1.814-6.737h5.024c0.335 3.726 1.272 8.194 3.604 11.819-3.065-1.219-5.346-2.919-6.814-5.081zM31.163 13.738c-1.465 2.162-3.746 3.859-6.813 5.076 2.331-3.62 3.269-8.089 3.6-11.814h5.024c0.032 1.481-0.068 4.169-1.812 6.737z"></path>
</symbol>
<symbol id="icon-bootstrap-brands" viewBox="0 0 36 32">
<path d="M20.844 12.588c0-1.381-0.975-2.144-2.688-2.144h-3.15v4.45h2.656c2.050-0.006 3.181-0.831 3.181-2.306zM32.313 11.787c-0.594-1.931-0.681-4.3-0.613-6.131 0.069-1.906-1.419-3.656-3.419-3.656h-20.55c-2.006 0-3.487 1.756-3.419 3.656 0.063 1.831-0.019 4.2-0.612 6.131-0.6 1.938-1.606 3.162-3.263 3.319v1.781c1.65 0.156 2.663 1.381 3.263 3.319 0.594 1.931 0.681 4.3 0.612 6.131-0.069 1.906 1.419 3.656 3.419 3.656h20.544c2.006 0 3.488-1.756 3.419-3.656-0.063-1.831 0.019-4.2 0.613-6.131 0.6-1.938 1.606-3.163 3.256-3.319v-1.781c-1.644-0.156-2.656-1.381-3.25-3.319zM18.762 23.444h-6.119v-14.894h6.088c2.706 0 4.481 1.463 4.481 3.713 0 1.581-1.194 2.994-2.719 3.237v0.081c2.075 0.225 3.469 1.663 3.469 3.644 0 2.631-1.956 4.219-5.2 4.219zM18.137 16.65h-3.131v4.9h3.269c2.137 0 3.269-0.856 3.269-2.469 0-1.606-1.163-2.431-3.406-2.431z"></path>
</symbol>
<symbol id="icon-database-solid" viewBox="0 0 28 32">
<path d="M28 5v3c0 2.762-6.269 5-14 5s-14-2.238-14-5v-3c0-2.761 6.269-5 14-5s14 2.239 14 5zM24.575 13.419c1.244-0.463 2.494-1.056 3.425-1.787v6.369c0 2.762-6.269 5-14 5s-14-2.238-14-5v-6.369c0.933 0.731 2.126 1.325 3.428 1.787 2.801 1 6.541 1.581 10.572 1.581s7.769-0.581 10.575-1.581v0zM3.428 23.419c2.801 1 6.541 1.581 10.572 1.581s7.769-0.581 10.575-1.581c1.244-0.462 2.494-1.056 3.425-1.788v5.369c0 2.762-6.269 5-14 5s-14-2.238-14-5v-5.369c0.933 0.731 2.126 1.325 3.428 1.788z"></path>
</symbol>
<symbol id="icon-arrow-up-right-from-square-solid" viewBox="0 0 32 32">
<path d="M24 20c-1.104 0-2 0.896-2 2v6h-18v-18h6c1.104 0 2-0.895 2-2s-0.896-2-2-2h-6c-2.209 0-4 1.791-4 4v18c0 2.209 1.791 4 4 4h18c2.209 0 4-1.791 4-4v-6c0-1.106-0.894-2-2-2zM31.413 0.585c-0.363-0.362-0.863-0.585-1.413-0.585h-10c-1.104 0-1.944 0.895-1.944 1.944 0 1.104 0.895 1.944 1.999 1.944h5.172l-14.059 14.281c-0.781 0.781-0.781 2.047 0 2.829 0.781 0.784 2.050 0.784 2.831 0.003l14-14.175v5.175c0 1.104 0.896 1.944 1.944 1.944s2.056-0.838 2.056-1.944v-10.056c0-0.496-0.225-0.996-0.587-1.358z"></path>
</symbol>
<symbol id="icon-arrow-up-from-bracket-solid" viewBox="0 0 28 32">
<path d="M24 22v4c0 1.104-0.896 2-2 2h-16c-1.104 0-2-0.896-2-2v-4c0-1.104-0.896-2-2-2s-2 0.896-2 2v4c0 3.314 2.686 6 6 6h16c3.314 0 6-2.686 6-6v-4c0-1.104-0.896-2-2-2s-2 0.894-2 2zM12.588 0.586l-8 8c-0.782 0.782-0.781 2.047 0 2.828s2.047 0.781 2.828 0l4.584-4.583v13.169c0 1.106 0.894 2 2 2s2-0.894 2-2v-13.169l4.586 4.586c0.781 0.781 2.047 0.781 2.828 0s0.781-2.047 0-2.828l-8-8c-0.783-0.785-2.046-0.785-2.827-0.003z"></path>
</symbol>
<symbol id="icon-bars-staggered-solid" viewBox="0 0 32 32">
<path d="M0 6c0-1.104 0.896-2 2-2h24c1.106 0 2 0.896 2 2 0 1.106-0.894 2-2 2h-24c-1.104 0-2-0.894-2-2zM4 16c0-1.106 0.896-2 2-2h24c1.106 0 2 0.894 2 2s-0.894 2-2 2h-24c-1.104 0-2-0.894-2-2zM26 28h-24c-1.104 0-2-0.894-2-2s0.896-2 2-2h24c1.106 0 2 0.894 2 2s-0.894 2-2 2z"></path>
</symbol>
<symbol id="icon-share-nodes-solid-1" viewBox="0 0 28 32">
<path d="M28 7.944c0 3.369-2.688 6-6 6-1.619 0-3.087-0.581-4.163-1.625l-5.881 2.938c0.031 0.244-0.012 0.438-0.012 0.744 0 0.25 0.044 0.444 0.012 0.744l5.881 2.938c1.075-1.044 2.544-1.681 4.163-1.681 3.313 0 6 2.631 6 6 0 3.313-2.688 6-6 6-3.369 0-6-2.688-6-6 0-0.306 0.012-0.5 0.044-0.744l-5.881-2.938c-1.075 1.044-2.544 1.681-4.162 1.681-3.314 0-6-2.688-6-6 0-3.369 2.686-6 6-6 1.619 0 3.088 0.637 4.162 1.681l5.881-2.938c-0.031-0.3-0.044-0.494-0.044-0.744 0-3.314 2.631-6 6-6 3.313 0 6 2.686 6 6v-0.056zM5.944 17.944c1.162 0 2-0.837 2-2 0-1.050-0.838-2-2-2-1.048 0-2 0.95-2 2 0 1.163 0.952 2 2 2zM22 5.944c-1.106 0-2 0.95-2 2 0 1.162 0.894 2 2 2s2-0.838 2-2c0-1.050-0.894-2-2-2zM22 26c1.106 0 2-0.894 2-2s-0.894-2-2-2c-1.106 0-2 0.894-2 2s0.894 2 2 2z"></path>
</symbol>
<symbol id="icon-share-nodes-solid" viewBox="0 0 28 32">
<path d="M28 7.944c0 3.369-2.688 6-6 6-1.619 0-3.087-0.581-4.163-1.625l-5.881 2.938c0.031 0.244-0.012 0.438-0.012 0.744 0 0.25 0.044 0.444 0.012 0.744l5.881 2.938c1.075-1.044 2.544-1.681 4.163-1.681 3.313 0 6 2.631 6 6 0 3.313-2.688 6-6 6-3.369 0-6-2.688-6-6 0-0.306 0.012-0.5 0.044-0.744l-5.881-2.938c-1.075 1.044-2.544 1.681-4.162 1.681-3.314 0-6-2.688-6-6 0-3.369 2.686-6 6-6 1.619 0 3.088 0.637 4.162 1.681l5.881-2.938c-0.031-0.3-0.044-0.494-0.044-0.744 0-3.314 2.631-6 6-6 3.313 0 6 2.686 6 6v-0.056zM5.944 17.944c1.162 0 2-0.837 2-2 0-1.050-0.838-2-2-2-1.048 0-2 0.95-2 2 0 1.163 0.952 2 2 2zM22 5.944c-1.106 0-2 0.95-2 2 0 1.162 0.894 2 2 2s2-0.838 2-2c0-1.050-0.894-2-2-2zM22 26c1.106 0 2-0.894 2-2s-0.894-2-2-2c-1.106 0-2 0.894-2 2s0.894 2 2 2z"></path>
</symbol>
<symbol id="icon-share-solid" viewBox="0 0 32 32">
<path d="M31.481 14.137l-11 9.444c-0.961 0.831-2.481 0.159-2.481-1.135v-5.44c-9.694 0.137-13.872 2.544-11.038 11.606 0.314 1.006-0.901 1.785-1.754 1.164-2.734-1.989-5.209-5.789-5.209-9.633 0-9.512 7.963-11.525 18-11.644v-4.999c0-1.292 1.517-1.966 2.481-1.135l11 9.444c0.694 0.652 0.694 1.727 0.001 2.328z"></path>
</symbol>
<symbol id="icon-medal-solid" viewBox="0 0 32 32">
<path d="M13.981 8.175l-4.662-7.689c-0.125-0.301-0.45-0.486-0.8-0.486h-7.517c-0.809 0-1.283 0.911-0.819 1.574l6.956 9.931c1.854-1.73 4.217-2.924 6.842-3.33zM16 10c-6.078 0-11 4.922-11 11s4.925 11 11 11 11-4.922 11-11-4.919-11-11-11zM21.781 19.831l-2.367 2.313 0.555 3.266c0.102 0.578-0.516 1.031-1.039 0.75l-2.93-1.539-2.93 1.536c-0.523 0.281-1.141-0.172-1.039-0.75l0.555-3.266-2.367-2.313c-0.429-0.416-0.185-1.141 0.402-1.228l3.274-0.477 1.464-2.967c0.125-0.266 0.383-0.398 0.641-0.398s0.516 0.136 0.641 0.398l1.469 2.969 3.274 0.477c0.595 0.086 0.832 0.811 0.401 1.23zM30.944 0h-7.462c-0.351 0-0.677 0.184-0.858 0.486l-4.61 7.631c2.625 0.406 4.992 1.601 6.844 3.336l6.956-9.931c0.467-0.611-0.008-1.522-0.87-1.522z"></path>
</symbol>
<symbol id="icon-certificate-solid" viewBox="0 0 32 32">
<path d="M16 3.341l2.756-2.887c0.431-0.389 0.938-0.543 1.519-0.403 0.525 0.141 0.931 0.554 1.063 1.080l0.994 3.906 3.875-1.096c0.525-0.147 1.087-0.001 1.469 0.383 0.331 0.384 0.531 0.946 0.381 1.469l-1.094 3.876 3.906 0.994c0.525 0.131 0.938 0.537 1.081 1.063 0.138 0.525-0.069 1.031-0.406 1.463l-2.887 2.812 2.887 2.756c0.337 0.431 0.544 0.938 0.406 1.519-0.144 0.525-0.556 0.931-1.081 1.063l-3.906 0.994 1.094 3.875c0.15 0.525-0.050 1.087-0.381 1.469-0.381 0.331-0.944 0.531-1.469 0.381l-3.875-1.094-0.994 3.906c-0.131 0.525-0.538 0.938-1.063 1.081-0.581 0.138-1.087-0.069-1.519-0.406l-2.756-2.887-2.813 2.887c-0.431 0.337-0.938 0.544-1.463 0.406-0.525-0.144-0.931-0.556-1.063-1.081l-0.994-3.906-3.876 1.094c-0.522 0.15-1.084-0.050-1.469-0.381-0.384-0.381-0.53-0.944-0.382-1.469l1.096-3.875-3.906-0.994c-0.526-0.131-0.94-0.538-1.080-1.063-0.141-0.581 0.013-1.087 0.403-1.519l2.887-2.756-2.887-2.813c-0.389-0.431-0.543-0.938-0.403-1.463s0.554-0.931 1.080-1.063l3.906-0.994-1.096-3.876c-0.147-0.522-0.001-1.084 0.383-1.469s0.946-0.53 1.469-0.382l3.876 1.096 0.994-3.906c0.131-0.526 0.537-0.94 1.063-1.080s1.031 0.013 1.463 0.403l2.813 2.887z"></path>
</symbol>
<symbol id="icon-backward-step-solid" viewBox="0 0 20 32">
<path d="M1.944 4.002c-1.104 0-1.944 0.896-1.944 2v19.994c0 1.104 0.896 2 2 2 1.104-0.052 2-0.896 2-2.052v-19.942c0-1.104-0.896-2-2.056-2zM16.719 4.463l-12 9.944c-0.48 0.456-0.719 1.024-0.719 1.593s0.239 1.136 0.715 1.539l12 9.944c1.289 1.070 3.282 0.172 3.282-1.539v-19.994c-0.053-1.659-1.991-2.558-3.278-1.487z"></path>
</symbol>
<symbol id="icon-star-and-crescent-solid" viewBox="0 0 32 32">
<path d="M21.281 29.15c-0.094 0-0.43 0.031-0.578 0.031-7.269 0-13.175-5.914-13.175-13.181s5.906-13.181 13.175-13.181c0.148 0 0.484 0.031 0.578 0.031 0.445 0 0.828-0.313 0.922-0.75 0.086-0.453-0.164-0.906-0.594-1.070-1.821-0.688-3.711-1.031-5.609-1.031-8.819 0-16 7.181-16 16s7.181 16 16 16c1.891 0 3.766-0.344 5.586-1.024 0.367-0.125 0.641-0.477 0.641-0.891-0.002-0.497-0.396-0.934-0.946-0.934zM31.469 13.369l-4.774-0.695-2.139-4.33c-0.113-0.225-0.337-0.344-0.556-0.344s-0.445 0.117-0.563 0.344l-2.133 4.328-4.774 0.695c-0.508 0.070-0.711 0.703-0.344 1.063l3.453 3.367-0.813 4.75c-0.070 0.406 0.194 0.734 0.609 0.734 0.094 0 0.195-0.023 0.289-0.078l4.274-2.242 4.266 2.242c0.102 0.055 0.195 0.078 0.297 0.078 0.359 0 0.68-0.328 0.609-0.734l-0.813-4.75 3.453-3.367c0.369-0.361 0.163-1.048-0.343-1.061z"></path>
</symbol>
<symbol id="icon-star-solid" viewBox="0 0 36 32">
<path d="M23.825 9.394l8.981 1.325c0.744 0.106 1.369 0.631 1.606 1.35 0.237 0.725 0.044 1.512-0.494 2.050l-6.512 6.387 1.538 9.162c0.125 0.75-0.181 1.512-0.806 1.956-0.619 0.444-1.438 0.5-2.106 0.144l-8.025-4.281-8.019 4.281c-0.675 0.356-1.494 0.3-2.112-0.144s-0.931-1.206-0.8-1.956l1.537-9.163-6.514-6.387c-0.538-0.537-0.729-1.325-0.493-2.050 0.236-0.719 0.859-1.244 1.608-1.35l8.974-1.325 4.025-8.271c0.331-0.689 1.031-1.126 1.794-1.126 0.769 0 1.469 0.437 1.8 1.126l4.019 8.271z"></path>
</symbol>
</defs>
</svg>
