<!-- Generated by IcoMoon.io -->
<svg version="1.1" xmlns="http://www.w3.org/2000/svg" width="32" height="32" viewBox="0 0 32 32">
<title>star-and-crescent-solid</title>
<path d="M21.281 29.15c-0.094 0-0.43 0.031-0.578 0.031-7.269 0-13.175-5.914-13.175-13.181s5.906-13.181 13.175-13.181c0.148 0 0.484 0.031 0.578 0.031 0.445 0 0.828-0.313 0.922-0.75 0.086-0.453-0.164-0.906-0.594-1.070-1.821-0.688-3.711-1.031-5.609-1.031-8.819 0-16 7.181-16 16s7.181 16 16 16c1.891 0 3.766-0.344 5.586-1.024 0.367-0.125 0.641-0.477 0.641-0.891-0.002-0.497-0.396-0.934-0.946-0.934zM31.469 13.369l-4.774-0.695-2.139-4.33c-0.113-0.225-0.337-0.344-0.556-0.344s-0.445 0.117-0.563 0.344l-2.133 4.328-4.774 0.695c-0.508 0.070-0.711 0.703-0.344 1.063l3.453 3.367-0.813 4.75c-0.070 0.406 0.194 0.734 0.609 0.734 0.094 0 0.195-0.023 0.289-0.078l4.274-2.242 4.266 2.242c0.102 0.055 0.195 0.078 0.297 0.078 0.359 0 0.68-0.328 0.609-0.734l-0.813-4.75 3.453-3.367c0.369-0.361 0.163-1.048-0.343-1.061z"></path>
</svg>
