<!-- Generated by IcoMoon.io -->
<svg version="1.1" xmlns="http://www.w3.org/2000/svg" width="36" height="32" viewBox="0 0 36 32">
<title>star-solid</title>
<path d="M23.825 9.394l8.981 1.325c0.744 0.106 1.369 0.631 1.606 1.35 0.237 0.725 0.044 1.512-0.494 2.050l-6.512 6.387 1.538 9.162c0.125 0.75-0.181 1.512-0.806 1.956-0.619 0.444-1.438 0.5-2.106 0.144l-8.025-4.281-8.019 4.281c-0.675 0.356-1.494 0.3-2.112-0.144s-0.931-1.206-0.8-1.956l1.537-9.163-6.514-6.387c-0.538-0.537-0.729-1.325-0.493-2.050 0.236-0.719 0.859-1.244 1.608-1.35l8.974-1.325 4.025-8.271c0.331-0.689 1.031-1.126 1.794-1.126 0.769 0 1.469 0.437 1.8 1.126l4.019 8.271z"></path>
</svg>
