<!-- Generated by IcoMoon.io -->
<svg version="1.1" xmlns="http://www.w3.org/2000/svg" width="40" height="32" viewBox="0 0 40 32">
<title>user-plus-solid</title>
<path d="M14 16c4.419 0 8-3.582 8-8s-3.581-8-8-8c-4.419 0-8 3.582-8 8s3.581 8 8 8zM17.169 19h-6.338c-5.981 0-10.831 4.85-10.831 10.831 0 1.2 0.97 2.169 2.166 2.169h23.669c1.196 0 2.165-0.969 2.165-2.169 0-5.981-4.85-10.831-10.831-10.831zM38.5 12.5h-3v-3c0-0.825-0.669-1.5-1.5-1.5s-1.5 0.672-1.5 1.5v3h-3c-0.825 0-1.5 0.675-1.5 1.5s0.672 1.5 1.5 1.5h3v3c0 0.831 0.675 1.5 1.5 1.5s1.5-0.672 1.5-1.5v-3h3c0.831 0 1.5-0.669 1.5-1.5s-0.669-1.5-1.5-1.5z"></path>
</svg>
